# xmcd CD database file
#
# Track frame offsets:
#	150
#	12420
#	26857
#	39470
#	53015
#	67130
#	80270
#	92412
#	107630
#	121017
#	135982
#	151207
#	166057
#	179797
#	192557
#	205467
#	219360
#	233037
#	246397
#	257787
#
# Disc length: 3597 seconds
#
# Revision: 2
# Processed by: cddbd v1.4PL0 Copyright (c) Steve Scherf et al.
# Submitted via: CDex 1.40Release
#
DISCID=130e0b14
DTITLE=Muddy Waters - His Best, 1947 to 1955
DYEAR=1997
DGENRE=Blues
TTITLE0=I Can't Be Satisfied
TTITLE1=I Feel Like Going Home
TTITLE2=Train Fare Blues
TTITLE3=Rollin'and Tumblin', part 1
TTITLE4=Rollin' Stone
TTITLE5=Louisiana Blues
TTITLE6=Long Distance Call
TTITLE7=Honey Bee
TTITLE8=She Moves Me
TTITLE9=Still A Fool
TTITLE10=Standing Around Crying
TTITLE11=Baby Please Don't Go
TTITLE12=I Want You To Love Me
TTITLE13=I'm Your Hoochie Coochie Man
TTITLE14=I Just Want To Make Love To You
TTITLE15=I'm Ready
TTITLE16=Young Fashioned Ways
TTITLE17=Mannish Boy
TTITLE18=Sugar Sweet
TTITLE19=Trouble No More
EXTD=YEAR: 1997 ID3G: 0
EXTT0=
EXTT1=
EXTT2=
EXTT3=
EXTT4=
EXTT5=
EXTT6=
EXTT7=
EXTT8=
EXTT9=
EXTT10=
EXTT11=
EXTT12=
EXTT13=
EXTT14=
EXTT15=
EXTT16=
EXTT17=
EXTT18=
EXTT19=
PLAYORDER=
